<mxfile host="app.diagrams.net" modified="2022-01-21T05:44:41.140Z" agent="5.0 (Windows NT 10.0; Win64; x64) AppleWebKit/537.36 (KHTML, like Gecko) Chrome/95.0.4638.69 Safari/537.36" etag="brsKWpYPEh6OTX2oLFKj" version="16.4.3" type="github">
  <diagram id="KS_B6hF460OYptntkMVr" name="第 1 页">
    <mxGraphModel dx="995" dy="542" grid="1" gridSize="10" guides="1" tooltips="1" connect="1" arrows="1" fold="1" page="1" pageScale="1" pageWidth="827" pageHeight="1169" math="0" shadow="0">
      <root>
        <mxCell id="0" />
        <mxCell id="1" parent="0" />
        <mxCell id="O8qGGHqz6sr_RBQ2mULS-1" value="文字" style="text;html=1;resizable=0;autosize=1;align=center;verticalAlign=middle;points=[];fillColor=none;strokeColor=none;rounded=0;" vertex="1" parent="1">
          <mxGeometry x="50" y="330" width="40" height="20" as="geometry" />
        </mxCell>
        <mxCell id="O8qGGHqz6sr_RBQ2mULS-2" value="正文字形" style="text;html=1;resizable=0;autosize=1;align=center;verticalAlign=middle;points=[];fillColor=none;strokeColor=none;rounded=0;" vertex="1" parent="1">
          <mxGeometry x="120" y="290" width="60" height="20" as="geometry" />
        </mxCell>
        <mxCell id="O8qGGHqz6sr_RBQ2mULS-3" value="非正文" style="text;html=1;resizable=0;autosize=1;align=center;verticalAlign=middle;points=[];fillColor=none;strokeColor=none;rounded=0;" vertex="1" parent="1">
          <mxGeometry x="120" y="460" width="50" height="20" as="geometry" />
        </mxCell>
        <mxCell id="O8qGGHqz6sr_RBQ2mULS-4" value="宋体" style="text;html=1;resizable=0;autosize=1;align=center;verticalAlign=middle;points=[];fillColor=none;strokeColor=none;rounded=0;" vertex="1" parent="1">
          <mxGeometry x="210" y="210" width="40" height="20" as="geometry" />
        </mxCell>
        <mxCell id="O8qGGHqz6sr_RBQ2mULS-5" value="黑体" style="text;html=1;resizable=0;autosize=1;align=center;verticalAlign=middle;points=[];fillColor=none;strokeColor=none;rounded=0;" vertex="1" parent="1">
          <mxGeometry x="210" y="240" width="40" height="20" as="geometry" />
        </mxCell>
        <mxCell id="O8qGGHqz6sr_RBQ2mULS-6" value="黑体" style="text;html=1;resizable=0;autosize=1;align=center;verticalAlign=middle;points=[];fillColor=none;strokeColor=none;rounded=0;" vertex="1" parent="1">
          <mxGeometry x="210" y="270" width="40" height="20" as="geometry" />
        </mxCell>
      </root>
    </mxGraphModel>
  </diagram>
</mxfile>
